<svg enable-background="new 0 0 512 512" height="512" viewBox="0 0 512 512" width="512" xmlns="http://www.w3.org/2000/svg"><path d="m337.803 268.126c.728 3.618 1.085 7.964 1.085 11.586v26.423c0 4.708-.357 9.05-1.447 13.033-4.341 19.188-20.269 31.492-38.37 31.492-28.232 0-44.162-23.528-44.162-55.745 0-32.943 15.93-58.281 44.523-58.281 20.272 0 34.39 14.118 38.371 31.492zm173.697-182.459v340.667c0 46.842-38.325 85.167-85.167 85.167h-340.666c-46.842-.001-85.167-38.326-85.167-85.168v-340.666c0-46.842 38.325-85.167 85.167-85.167h340.667c46.841 0 85.166 38.325 85.166 85.167zm-339.839 52.869h-44.523v243.979h44.523zm213.203 243.979c-.728-11.947-1.451-31.492-1.451-49.59v-207.422h-44.525v99.909h-.724c-7.959-13.031-25.338-23.167-49.59-23.167-42.353 0-79.276 35.113-78.915 94.118 0 54.298 33.303 90.132 75.292 90.132 25.699 0 47.058-12.305 57.558-31.854h.724l1.809 27.874z"/></svg>