<svg enable-background="new 0 0 512 512" height="512" viewBox="0 0 512 512" width="512" xmlns="http://www.w3.org/2000/svg"><path d="m227.955 208.761c0 28.596-20.273 44.887-53.575 44.887-9.053 0-16.289-.364-21.72-1.811v-82.532c4.708-1.087 13.395-2.173 25.7-2.173 30.773 0 49.595 14.48 49.595 41.629zm283.545-123.094v340.667c0 46.842-38.325 85.167-85.167 85.167h-340.666c-46.842-.001-85.167-38.326-85.167-85.168v-340.666c0-46.842 38.325-85.167 85.167-85.167h340.667c46.841 0 85.166 38.325 85.166 85.167zm-239.023 121.283c0-22.803-9.407-41.989-23.887-53.934-15.569-13.033-39.456-19.911-72.038-19.911-30.045 0-52.127 2.173-68.054 5.069v240.718h44.164v-91.944c5.793 1.089 13.395 1.451 21.72 1.451 31.493 0 59.363-8.33 77.104-26.062 13.754-13.034 20.991-32.22 20.991-55.387zm131.026-7.238c-3.622-.726-6.154-1.087-10.5-1.087-18.826 0-39.456 12.671-48.144 37.647h-1.447l-1.447-33.666h-38.732c1.081 15.927 1.447 32.942 1.447 56.833v119.453h44.521v-91.222c0-5.064.724-9.772 1.447-13.752 3.983-19.909 18.464-33.665 39.821-33.665 5.432 0 9.411.724 13.033 1.447v-41.988z"/></svg>